<svg width="194" height="167" viewBox="0 0 194 167" fill="none" xmlns="http://www.w3.org/2000/svg">
<rect x="64" y="51" width="65" height="65" rx="8" fill="#016DF6"/>
<path d="M110.644 72.4436C112.669 74.053 113.596 75.9335 113.947 78.374C114.336 83.2326 112.573 87.6759 109.192 91.3427C107.473 93.1798 104.379 95.769 101.653 96C100.988 95.9344 100.704 95.6963 100.231 95.2674C99.9683 94.7767 99.8879 94.3784 99.8898 93.829C100.22 92.916 101.306 92.4002 102.13 91.875C104.273 90.4926 105.984 88.2895 106.57 85.9022C106.59 85.783 106.611 85.6638 106.632 85.5409C106.486 85.5365 106.34 85.5321 106.189 85.5276C103.873 85.416 101.73 84.9112 100.061 83.3286C98.411 81.4981 97.8415 79.3558 98.0367 77.0089C98.4561 75.0127 99.6678 73.3224 101.433 72.1343C104.296 70.5578 107.933 70.5915 110.644 72.4436Z" fill="white"/>
<path d="M91.6445 72.4436C93.6689 74.053 94.5962 75.9335 94.9469 78.374C95.3356 83.2326 93.5733 87.6759 90.1922 91.3427C88.473 93.1798 85.3792 95.769 82.6528 96C81.9878 95.9344 81.7043 95.6963 81.2313 95.2674C80.9683 94.7767 80.8879 94.3784 80.8898 93.829C81.2199 92.916 82.3057 92.4002 83.1296 91.875C85.2727 90.4926 86.9839 88.2895 87.5698 85.9022C87.5903 85.783 87.6108 85.6638 87.6319 85.5409C87.4857 85.5365 87.3396 85.5321 87.189 85.5276C84.8725 85.416 82.7296 84.9112 81.0605 83.3286C79.411 81.4981 78.8415 79.3558 79.0367 77.0089C79.4561 75.0127 80.6678 73.3224 82.4328 72.1343C85.2962 70.5578 88.9332 70.5915 91.6445 72.4436Z" fill="white"/>
</svg>
